<mxfile host="app.diagrams.net" modified="2023-11-08T09:59:22.655Z" agent="Mozilla/5.0 (Windows NT 10.0; Win64; x64) AppleWebKit/537.36 (KHTML, like Gecko) Chrome/119.0.0.0 Safari/537.36" etag="pstIJ9wEBR93qZnwTeQf" version="22.0.8" type="github">
  <diagram name="Page-1" id="e3a06f82-3646-2815-327d-82caf3d4e204">
    <mxGraphModel dx="1420" dy="744" grid="1" gridSize="10" guides="1" tooltips="1" connect="1" arrows="1" fold="1" page="1" pageScale="1" pageWidth="827" pageHeight="1169" background="none" math="0" shadow="0">
      <root>
        <mxCell id="0" style=";html=1;" />
        <mxCell id="1" style=";html=1;" parent="0" />
        <mxCell id="6a7d8f32e03d9370-59" value="&lt;font style=&quot;font-size: 18px;&quot; face=&quot;Calibri&quot;&gt;&lt;span style=&quot;&quot;&gt;&lt;b&gt;Текущая аттестация&lt;/b&gt;&lt;br&gt;Предварительные оценки успеваемости&lt;br&gt;&lt;/span&gt;&lt;/font&gt;" style="whiteSpace=wrap;html=1;fillColor=#dae8fc;fontSize=14;strokeColor=#6c8ebf;verticalAlign=top;" parent="1" vertex="1">
          <mxGeometry x="318.5" y="80.44" width="190" height="500" as="geometry" />
        </mxCell>
        <mxCell id="6a7d8f32e03d9370-57" value="&lt;font style=&quot;font-size: 18px;&quot; face=&quot;Calibri&quot;&gt;&lt;b&gt;Прогноз&lt;/b&gt;&lt;br&gt;Предсказание&lt;br&gt;машинного обучения&lt;br&gt;&lt;/font&gt;" style="whiteSpace=wrap;html=1;fillColor=#dae8fc;fontSize=14;strokeColor=#6c8ebf;verticalAlign=top;" parent="1" vertex="1">
          <mxGeometry x="120" y="80" width="190" height="500" as="geometry" />
        </mxCell>
        <mxCell id="Rmyz0eIJAW2nJohLAHlB-1" value="&lt;font style=&quot;font-size: 18px;&quot; face=&quot;Calibri&quot;&gt;&lt;span style=&quot;&quot;&gt;&lt;b&gt;Последствия машинного обучения&lt;/b&gt;&lt;br&gt;&lt;/span&gt;&lt;/font&gt;" style="whiteSpace=wrap;html=1;fillColor=#dae8fc;fontSize=14;strokeColor=#6c8ebf;verticalAlign=top;shadow=1;" parent="1" vertex="1">
          <mxGeometry x="520" y="80.44" width="190" height="499.56" as="geometry" />
        </mxCell>
        <mxCell id="0L1pSdcY96lbb22dAQDU-1" value="&lt;font style=&quot;font-size: 16px;&quot; face=&quot;Calibri&quot;&gt;Должник&lt;/font&gt;" style="rounded=0;whiteSpace=wrap;html=1;strokeColor=#807ee7;shadow=1;fontColor=#3333FF;" vertex="1" parent="1">
          <mxGeometry x="155" y="170" width="120" height="40" as="geometry" />
        </mxCell>
        <mxCell id="0L1pSdcY96lbb22dAQDU-6" value="&lt;font style=&quot;font-size: 16px;&quot; face=&quot;Calibri&quot;&gt;Должник&lt;/font&gt;" style="rounded=0;whiteSpace=wrap;html=1;strokeColor=#807ee7;shadow=1;fontColor=#3333FF;" vertex="1" parent="1">
          <mxGeometry x="354" y="170" width="120" height="40" as="geometry" />
        </mxCell>
        <mxCell id="0L1pSdcY96lbb22dAQDU-7" value="&lt;font style=&quot;font-size: 16px;&quot; face=&quot;Calibri&quot;&gt;Должник&lt;/font&gt;" style="rounded=0;whiteSpace=wrap;html=1;strokeColor=#807ee7;glass=0;shadow=1;fontColor=#3333FF;" vertex="1" parent="1">
          <mxGeometry x="155" y="230" width="120" height="40" as="geometry" />
        </mxCell>
        <mxCell id="0L1pSdcY96lbb22dAQDU-8" value="&lt;font style=&quot;font-size: 16px;&quot; face=&quot;Calibri&quot;&gt;Успевающий&lt;/font&gt;" style="rounded=0;whiteSpace=wrap;html=1;strokeColor=#807ee7;shadow=1;" vertex="1" parent="1">
          <mxGeometry x="354" y="230" width="120" height="40" as="geometry" />
        </mxCell>
        <mxCell id="0L1pSdcY96lbb22dAQDU-10" value="&lt;font style=&quot;font-size: 16px;&quot; face=&quot;Calibri&quot;&gt;Успевающий&lt;/font&gt;" style="rounded=0;whiteSpace=wrap;html=1;strokeColor=#807ee7;shadow=1;" vertex="1" parent="1">
          <mxGeometry x="155" y="290" width="120" height="40" as="geometry" />
        </mxCell>
        <mxCell id="0L1pSdcY96lbb22dAQDU-11" value="&lt;font style=&quot;font-size: 16px;&quot; face=&quot;Calibri&quot;&gt;Успевающий&lt;/font&gt;" style="rounded=0;whiteSpace=wrap;html=1;strokeColor=#807ee7;shadow=1;" vertex="1" parent="1">
          <mxGeometry x="354" y="290" width="120" height="40" as="geometry" />
        </mxCell>
        <mxCell id="0L1pSdcY96lbb22dAQDU-12" value="&lt;font style=&quot;font-size: 16px;&quot; face=&quot;Calibri&quot;&gt;Успевающий&lt;/font&gt;" style="rounded=0;whiteSpace=wrap;html=1;strokeColor=#807ee7;shadow=1;" vertex="1" parent="1">
          <mxGeometry x="155" y="350" width="120" height="40" as="geometry" />
        </mxCell>
        <mxCell id="0L1pSdcY96lbb22dAQDU-13" value="&lt;font style=&quot;font-size: 16px;&quot; face=&quot;Calibri&quot;&gt;Должник&lt;/font&gt;" style="rounded=0;whiteSpace=wrap;html=1;strokeColor=#807ee7;shadow=1;fontColor=#3333FF;" vertex="1" parent="1">
          <mxGeometry x="354" y="350" width="120" height="40" as="geometry" />
        </mxCell>
        <mxCell id="0L1pSdcY96lbb22dAQDU-16" value="&lt;font face=&quot;Calibri&quot;&gt;&lt;span style=&quot;font-size: 16px;&quot;&gt;Истинно&lt;br&gt;должник&lt;/span&gt;&lt;/font&gt;" style="shape=note;whiteSpace=wrap;html=1;backgroundOutline=1;darkOpacity=0.05;strokeColor=#475AFF;shadow=1;size=9;fontColor=#4D5EFF;" vertex="1" parent="1">
          <mxGeometry x="530" y="170" width="170" height="40" as="geometry" />
        </mxCell>
        <mxCell id="0L1pSdcY96lbb22dAQDU-17" value="&lt;font style=&quot;font-size: 16px;&quot; face=&quot;Calibri&quot;&gt;Истинно&lt;br&gt;успевающий&lt;br&gt;&lt;/font&gt;" style="shape=note;whiteSpace=wrap;html=1;backgroundOutline=1;darkOpacity=0.05;strokeColor=#475AFF;shadow=1;size=9;" vertex="1" parent="1">
          <mxGeometry x="530" y="290" width="170" height="40" as="geometry" />
        </mxCell>
        <mxCell id="0L1pSdcY96lbb22dAQDU-18" value="&lt;span style=&quot;color: rgb(77, 94, 255); font-family: Calibri; font-size: 16px;&quot;&gt;Теоретически&lt;br&gt;должник&lt;/span&gt;&lt;font face=&quot;Calibri&quot;&gt;&lt;span style=&quot;font-size: 16px;&quot;&gt;&lt;br&gt;&lt;/span&gt;&lt;/font&gt;" style="shape=note;whiteSpace=wrap;html=1;backgroundOutline=1;darkOpacity=0.05;strokeColor=#475AFF;shadow=1;size=9;gradientColor=none;" vertex="1" parent="1">
          <mxGeometry x="530" y="230" width="170" height="40" as="geometry" />
        </mxCell>
        <mxCell id="0L1pSdcY96lbb22dAQDU-19" value="&lt;font style=&quot;&quot; face=&quot;Calibri&quot;&gt;&lt;span style=&quot;font-size: 16px;&quot;&gt;Теоретически&lt;br&gt;должник&lt;/span&gt;&lt;br&gt;&lt;/font&gt;" style="shape=note;whiteSpace=wrap;html=1;backgroundOutline=1;darkOpacity=0.05;strokeColor=#475AFF;shadow=1;size=9;fontColor=#4D5EFF;" vertex="1" parent="1">
          <mxGeometry x="530" y="350" width="170" height="40" as="geometry" />
        </mxCell>
      </root>
    </mxGraphModel>
  </diagram>
</mxfile>
